<svg xmlns="http://www.w3.org/2000/svg" width="375" height="812" viewBox="0 0 375 812">
  <!-- Background -->
  <rect width="375" height="812" fill="#FFFFFF" rx="20"/>
  <rect width="375" height="812" fill="none" stroke="#E0E0E0" stroke-width="2" rx="20"/>

  <!-- Status Bar -->
  <rect x="0" y="0" width="375" height="44" fill="#F5F5F5" rx="20"/>
  <text x="187" y="30" font-family="Arial" font-size="14" font-weight="bold" text-anchor="middle" fill="#333">9:41</text>

  <!-- Header -->
  <rect x="0" y="44" width="375" height="56" fill="#FF6F00"/>
  <text x="187" y="78" font-family="Arial" font-size="18" font-weight="bold" text-anchor="middle" fill="#FFFFFF">당근 검색</text>

  <!-- Location Search Section -->
  <rect x="16" y="116" width="343" height="44" rx="8" fill="#F5F5F5" stroke="#E0E0E0"/>
  <text x="32" y="143" font-family="Arial" font-size="14" fill="#999">지역 검색 (예: 덕양, 강남, 서초)</text>
  <circle cx="335" cy="138" r="12" fill="none" stroke="#999" stroke-width="1.5"/>
  <text x="335" y="143" font-family="Arial" font-size="12" text-anchor="middle" fill="#999">Q</text>

  <!-- Location Autocomplete Dropdown (구/군 레벨만) -->
  <rect x="16" y="164" width="343" height="120" rx="8" fill="#FFFFFF" stroke="#E0E0E0"/>
  <rect x="16" y="164" width="343" height="40" rx="8" fill="#FFF3E0"/>
  <text x="32" y="188" font-family="Arial" font-size="13" font-weight="bold" fill="#FF6F00">고양시 덕양구</text>
  <text x="280" y="188" font-family="Arial" font-size="11" fill="#999">경기도</text>
  <line x1="32" y1="204" x2="343" y2="204" stroke="#F0F0F0"/>
  <text x="32" y="228" font-family="Arial" font-size="13" fill="#333">고양시 덕양구</text>
  <text x="280" y="228" font-family="Arial" font-size="11" fill="#999">경기도</text>
  <line x1="32" y1="244" x2="343" y2="244" stroke="#F0F0F0"/>
  <text x="32" y="268" font-family="Arial" font-size="13" fill="#333">부천시 덕양동</text>
  <text x="280" y="268" font-family="Arial" font-size="11" fill="#999">경기도</text>

  <!-- Selected Location Chip -->
  <rect x="16" y="296" width="150" height="32" rx="16" fill="#FF6F00"/>
  <text x="32" y="317" font-family="Arial" font-size="13" font-weight="bold" fill="#FFFFFF">고양시 덕양구</text>
  <text x="152" y="317" font-family="Arial" font-size="13" fill="#FFE0B2">x</text>

  <!-- Keyword Search -->
  <rect x="16" y="342" width="270" height="44" rx="8" fill="#F5F5F5" stroke="#E0E0E0"/>
  <text x="32" y="369" font-family="Arial" font-size="14" fill="#999">검색어 입력</text>
  <rect x="294" y="342" width="65" height="44" rx="8" fill="#FF6F00"/>
  <text x="326" y="369" font-family="Arial" font-size="14" font-weight="bold" text-anchor="middle" fill="#FFFFFF">검색</text>

  <!-- Search Info -->
  <text x="16" y="412" font-family="Arial" font-size="12" fill="#999">덕양구 18개 동 통합 검색 결과 15건</text>

  <!-- Product Card 1 -->
  <rect x="16" y="428" width="343" height="96" rx="8" fill="#FFFFFF" stroke="#E0E0E0"/>
  <rect x="24" y="436" width="80" height="80" rx="6" fill="#F0F0F0"/>
  <text x="64" y="481" font-family="Arial" font-size="11" text-anchor="middle" fill="#CCC">IMAGE</text>
  <text x="116" y="456" font-family="Arial" font-size="14" font-weight="bold" fill="#333">아이폰 15 Pro 256GB</text>
  <text x="116" y="478" font-family="Arial" font-size="16" font-weight="bold" fill="#FF6F00">1,200,000원</text>
  <text x="116" y="496" font-family="Arial" font-size="12" fill="#999">능곡동 · 3분 전</text>
  <text x="116" y="514" font-family="Arial" font-size="11" fill="#999">판매중</text>

  <!-- Product Card 2 -->
  <rect x="16" y="532" width="343" height="96" rx="8" fill="#FFFFFF" stroke="#E0E0E0"/>
  <rect x="24" y="540" width="80" height="80" rx="6" fill="#F0F0F0"/>
  <text x="64" y="585" font-family="Arial" font-size="11" text-anchor="middle" fill="#CCC">IMAGE</text>
  <text x="116" y="560" font-family="Arial" font-size="14" font-weight="bold" fill="#333">맥북 프로 M3 14인치</text>
  <text x="116" y="582" font-family="Arial" font-size="16" font-weight="bold" fill="#FF6F00">2,300,000원</text>
  <text x="116" y="600" font-family="Arial" font-size="12" fill="#999">행신동 · 10분 전</text>
  <text x="116" y="618" font-family="Arial" font-size="11" fill="#999">판매중</text>

  <!-- Product Card 3 -->
  <rect x="16" y="636" width="343" height="88" rx="8" fill="#FFFFFF" stroke="#E0E0E0"/>
  <rect x="24" y="644" width="80" height="72" rx="6" fill="#F0F0F0"/>
  <text x="64" y="685" font-family="Arial" font-size="11" text-anchor="middle" fill="#CCC">IMAGE</text>
  <text x="116" y="664" font-family="Arial" font-size="14" font-weight="bold" fill="#333">에어팟 프로 2세대</text>
  <text x="116" y="686" font-family="Arial" font-size="16" font-weight="bold" fill="#FF6F00">180,000원</text>
  <text x="116" y="704" font-family="Arial" font-size="12" fill="#999">화정동 · 25분 전</text>
  <text x="116" y="718" font-family="Arial" font-size="11" fill="#FF6F00">예약중</text>

  <!-- Bottom Navigation Bar -->
  <rect x="0" y="732" width="375" height="80" fill="#FFFFFF" stroke="#E0E0E0" stroke-width="1"/>
  <!-- Tab 1 - Active -->
  <rect x="0" y="732" width="94" height="3" fill="#FF6F00"/>
  <text x="47" y="765" font-family="Arial" font-size="20" text-anchor="middle" fill="#FF6F00">&#x1F955;</text>
  <text x="47" y="785" font-family="Arial" font-size="10" font-weight="bold" text-anchor="middle" fill="#FF6F00">당근</text>
  <!-- Tab 2 -->
  <text x="141" y="765" font-family="Arial" font-size="20" text-anchor="middle" fill="#999">&#x1F50D;</text>
  <text x="141" y="785" font-family="Arial" font-size="10" text-anchor="middle" fill="#999">매물검색</text>
  <!-- Tab 3 -->
  <text x="234" y="765" font-family="Arial" font-size="20" text-anchor="middle" fill="#999">&#x1F514;</text>
  <text x="234" y="785" font-family="Arial" font-size="10" text-anchor="middle" fill="#999">알림</text>
  <!-- Tab 4 -->
  <text x="328" y="765" font-family="Arial" font-size="20" text-anchor="middle" fill="#999">&#x2699;</text>
  <text x="328" y="785" font-family="Arial" font-size="10" text-anchor="middle" fill="#999">설정</text>
</svg>