<svg xmlns="http://www.w3.org/2000/svg" width="375" height="812" viewBox="0 0 375 812">
  <!-- Background -->
  <rect width="375" height="812" fill="#FFFFFF" rx="20"/>
  <rect width="375" height="812" fill="none" stroke="#E0E0E0" stroke-width="2" rx="20"/>

  <!-- Status Bar -->
  <rect x="0" y="0" width="375" height="44" fill="#F5F5F5" rx="20"/>
  <text x="187" y="30" font-family="Arial" font-size="14" font-weight="bold" text-anchor="middle" fill="#333">9:41</text>

  <!-- Header -->
  <rect x="0" y="44" width="375" height="56" fill="#4A90D9"/>
  <text x="187" y="78" font-family="Arial" font-size="18" font-weight="bold" text-anchor="middle" fill="#FFFFFF">매물 검색</text>

  <!-- Search Bar -->
  <rect x="16" y="116" width="270" height="44" rx="8" fill="#F5F5F5" stroke="#E0E0E0"/>
  <text x="32" y="143" font-family="Arial" font-size="14" fill="#999">검색어 입력</text>
  <rect x="294" y="116" width="65" height="44" rx="8" fill="#4A90D9"/>
  <text x="326" y="143" font-family="Arial" font-size="14" font-weight="bold" text-anchor="middle" fill="#FFFFFF">검색</text>

  <!-- Filter Row -->
  <rect x="16" y="172" width="100" height="32" rx="6" fill="#F5F5F5" stroke="#E0E0E0"/>
  <text x="66" y="192" font-family="Arial" font-size="12" text-anchor="middle" fill="#666">가격 범위</text>
  <rect x="124" y="172" width="80" height="32" rx="6" fill="#F5F5F5" stroke="#E0E0E0"/>
  <text x="164" y="192" font-family="Arial" font-size="12" text-anchor="middle" fill="#666">최신순</text>

  <!-- Info Text -->
  <text x="16" y="228" font-family="Arial" font-size="12" fill="#999">번개장터 + 중고나라 통합 검색 결과</text>

  <!-- Product Card 1 -->
  <rect x="16" y="244" width="343" height="100" rx="8" fill="#FFFFFF" stroke="#E0E0E0"/>
  <rect x="24" y="252" width="84" height="84" rx="6" fill="#F0F0F0"/>
  <text x="66" y="299" font-family="Arial" font-size="11" text-anchor="middle" fill="#CCC">IMAGE</text>
  <!-- Platform Badge -->
  <rect x="120" y="254" width="52" height="18" rx="4" fill="#E8F5E9"/>
  <text x="146" y="267" font-family="Arial" font-size="10" font-weight="bold" text-anchor="middle" fill="#4CAF50">번개장터</text>
  <text x="120" y="290" font-family="Arial" font-size="14" font-weight="bold" fill="#333">아이폰 15 Pro Max</text>
  <text x="120" y="312" font-family="Arial" font-size="16" font-weight="bold" fill="#4A90D9">1,350,000원</text>
  <text x="120" y="330" font-family="Arial" font-size="12" fill="#999">강남구 · 5분 전</text>

  <!-- Product Card 2 -->
  <rect x="16" y="352" width="343" height="100" rx="8" fill="#FFFFFF" stroke="#E0E0E0"/>
  <rect x="24" y="360" width="84" height="84" rx="6" fill="#F0F0F0"/>
  <text x="66" y="407" font-family="Arial" font-size="11" text-anchor="middle" fill="#CCC">IMAGE</text>
  <rect x="120" y="362" width="52" height="18" rx="4" fill="#FFF3E0"/>
  <text x="146" y="375" font-family="Arial" font-size="10" font-weight="bold" text-anchor="middle" fill="#FF9800">중고나라</text>
  <text x="120" y="398" font-family="Arial" font-size="14" font-weight="bold" fill="#333">갤럭시 S24 울트라</text>
  <text x="120" y="420" font-family="Arial" font-size="16" font-weight="bold" fill="#4A90D9">980,000원</text>
  <text x="120" y="438" font-family="Arial" font-size="12" fill="#999">서초구 · 12분 전</text>

  <!-- Product Card 3 -->
  <rect x="16" y="460" width="343" height="100" rx="8" fill="#FFFFFF" stroke="#E0E0E0"/>
  <rect x="24" y="468" width="84" height="84" rx="6" fill="#F0F0F0"/>
  <text x="66" y="515" font-family="Arial" font-size="11" text-anchor="middle" fill="#CCC">IMAGE</text>
  <rect x="120" y="470" width="52" height="18" rx="4" fill="#E8F5E9"/>
  <text x="146" y="483" font-family="Arial" font-size="10" font-weight="bold" text-anchor="middle" fill="#4CAF50">번개장터</text>
  <text x="120" y="506" font-family="Arial" font-size="14" font-weight="bold" fill="#333">닌텐도 스위치 OLED</text>
  <text x="120" y="528" font-family="Arial" font-size="16" font-weight="bold" fill="#4A90D9">280,000원</text>
  <text x="120" y="546" font-family="Arial" font-size="12" fill="#999">마포구 · 30분 전</text>

  <!-- Product Card 4 -->
  <rect x="16" y="568" width="343" height="100" rx="8" fill="#FFFFFF" stroke="#E0E0E0"/>
  <rect x="24" y="576" width="84" height="84" rx="6" fill="#F0F0F0"/>
  <text x="66" y="623" font-family="Arial" font-size="11" text-anchor="middle" fill="#CCC">IMAGE</text>
  <rect x="120" y="578" width="52" height="18" rx="4" fill="#FFF3E0"/>
  <text x="146" y="591" font-family="Arial" font-size="10" font-weight="bold" text-anchor="middle" fill="#FF9800">중고나라</text>
  <text x="120" y="614" font-family="Arial" font-size="14" font-weight="bold" fill="#333">다이슨 에어랩 컴플리트</text>
  <text x="120" y="636" font-family="Arial" font-size="16" font-weight="bold" fill="#4A90D9">450,000원</text>
  <text x="120" y="654" font-family="Arial" font-size="12" fill="#999">송파구 · 1시간 전</text>

  <!-- Bottom Navigation Bar -->
  <rect x="0" y="732" width="375" height="80" fill="#FFFFFF" stroke="#E0E0E0" stroke-width="1"/>
  <!-- Tab 1 -->
  <text x="47" y="765" font-family="Arial" font-size="20" text-anchor="middle" fill="#999">&#x1F955;</text>
  <text x="47" y="785" font-family="Arial" font-size="10" text-anchor="middle" fill="#999">당근</text>
  <!-- Tab 2 - Active -->
  <rect x="94" y="732" width="94" height="3" fill="#4A90D9"/>
  <text x="141" y="765" font-family="Arial" font-size="20" text-anchor="middle" fill="#4A90D9">&#x1F50D;</text>
  <text x="141" y="785" font-family="Arial" font-size="10" font-weight="bold" text-anchor="middle" fill="#4A90D9">매물검색</text>
  <!-- Tab 3 -->
  <text x="234" y="765" font-family="Arial" font-size="20" text-anchor="middle" fill="#999">&#x1F514;</text>
  <text x="234" y="785" font-family="Arial" font-size="10" text-anchor="middle" fill="#999">알림</text>
  <!-- Tab 4 -->
  <text x="328" y="765" font-family="Arial" font-size="20" text-anchor="middle" fill="#999">&#x2699;</text>
  <text x="328" y="785" font-family="Arial" font-size="10" text-anchor="middle" fill="#999">설정</text>
</svg>