<svg xmlns="http://www.w3.org/2000/svg" width="375" height="812" viewBox="0 0 375 812">
  <!-- Background -->
  <rect width="375" height="812" fill="#FFFFFF" rx="20"/>
  <rect width="375" height="812" fill="none" stroke="#E0E0E0" stroke-width="2" rx="20"/>

  <!-- Status Bar -->
  <rect x="0" y="0" width="375" height="44" fill="#F5F5F5" rx="20"/>
  <text x="187" y="30" font-family="Arial" font-size="14" font-weight="bold" text-anchor="middle" fill="#333">9:41</text>

  <!-- Header -->
  <rect x="0" y="44" width="375" height="56" fill="#E53935"/>
  <text x="187" y="78" font-family="Arial" font-size="18" font-weight="bold" text-anchor="middle" fill="#FFFFFF">알림 이력</text>
  <!-- Mark All Read Button -->
  <text x="340" y="78" font-family="Arial" font-size="13" text-anchor="middle" fill="#FFCDD2">모두 읽음</text>

  <!-- Date Section Header -->
  <rect x="0" y="100" width="375" height="32" fill="#FAFAFA"/>
  <text x="16" y="121" font-family="Arial" font-size="12" font-weight="bold" fill="#666">오늘</text>

  <!-- Alert Card 1 - Unread -->
  <rect x="0" y="132" width="375" height="90" fill="#FFF8E1"/>
  <rect x="4" y="132" width="4" height="90" fill="#FF6F00" rx="2"/>
  <rect x="16" y="140" width="52" height="18" rx="4" fill="#E8F5E9"/>
  <text x="42" y="153" font-family="Arial" font-size="10" font-weight="bold" text-anchor="middle" fill="#4CAF50">번개장터</text>
  <text x="76" y="153" font-family="Arial" font-size="11" fill="#999">10분 전</text>
  <text x="16" y="175" font-family="Arial" font-size="14" font-weight="bold" fill="#333">아이폰 15 Pro 256GB 급처</text>
  <text x="16" y="195" font-family="Arial" font-size="14" font-weight="bold" fill="#E53935">1,100,000원</text>
  <text x="16" y="212" font-family="Arial" font-size="11" fill="#999">키워드: 아이폰 15</text>
  <!-- Unread dot -->
  <circle cx="350" cy="160" r="5" fill="#E53935"/>

  <!-- Alert Card 2 - Unread -->
  <rect x="0" y="226" width="375" height="90" fill="#FFF8E1"/>
  <rect x="4" y="226" width="4" height="90" fill="#FF9800" rx="2"/>
  <rect x="16" y="234" width="52" height="18" rx="4" fill="#FFF3E0"/>
  <text x="42" y="247" font-family="Arial" font-size="10" font-weight="bold" text-anchor="middle" fill="#FF9800">중고나라</text>
  <text x="76" y="247" font-family="Arial" font-size="11" fill="#999">25분 전</text>
  <text x="16" y="269" font-family="Arial" font-size="14" font-weight="bold" fill="#333">맥북 프로 M3 14인치 팝니다</text>
  <text x="16" y="289" font-family="Arial" font-size="14" font-weight="bold" fill="#E53935">2,100,000원</text>
  <text x="16" y="306" font-family="Arial" font-size="11" fill="#999">키워드: 맥북 프로</text>
  <circle cx="350" cy="254" r="5" fill="#E53935"/>

  <!-- Alert Card 3 - Read -->
  <rect x="0" y="320" width="375" height="90" fill="#FFFFFF"/>
  <line x1="0" y1="320" x2="375" y2="320" stroke="#F0F0F0"/>
  <rect x="16" y="328" width="52" height="18" rx="4" fill="#E8F5E9"/>
  <text x="42" y="341" font-family="Arial" font-size="10" font-weight="bold" text-anchor="middle" fill="#4CAF50">번개장터</text>
  <text x="76" y="341" font-family="Arial" font-size="11" fill="#999">1시간 전</text>
  <text x="16" y="363" font-family="Arial" font-size="14" fill="#666">에어팟 프로 2세대 미개봉</text>
  <text x="16" y="383" font-family="Arial" font-size="14" fill="#999">200,000원</text>
  <text x="16" y="400" font-family="Arial" font-size="11" fill="#999">키워드: 에어팟</text>

  <!-- Date Section Header - Yesterday -->
  <rect x="0" y="414" width="375" height="32" fill="#FAFAFA"/>
  <text x="16" y="435" font-family="Arial" font-size="12" font-weight="bold" fill="#666">어제</text>

  <!-- Alert Card 4 - Read -->
  <rect x="0" y="446" width="375" height="90" fill="#FFFFFF"/>
  <line x1="0" y1="446" x2="375" y2="446" stroke="#F0F0F0"/>
  <rect x="16" y="454" width="52" height="18" rx="4" fill="#FFF3E0"/>
  <text x="42" y="467" font-family="Arial" font-size="10" font-weight="bold" text-anchor="middle" fill="#FF9800">중고나라</text>
  <text x="76" y="467" font-family="Arial" font-size="11" fill="#999">어제 18:30</text>
  <text x="16" y="489" font-family="Arial" font-size="14" fill="#666">갤럭시 S24 울트라 256GB</text>
  <text x="16" y="509" font-family="Arial" font-size="14" fill="#999">950,000원</text>
  <text x="16" y="526" font-family="Arial" font-size="11" fill="#999">키워드: 갤럭시 S24</text>

  <!-- Alert Card 5 - Read -->
  <rect x="0" y="540" width="375" height="90" fill="#FFFFFF"/>
  <line x1="0" y1="540" x2="375" y2="540" stroke="#F0F0F0"/>
  <rect x="16" y="548" width="52" height="18" rx="4" fill="#E8F5E9"/>
  <text x="42" y="561" font-family="Arial" font-size="10" font-weight="bold" text-anchor="middle" fill="#4CAF50">번개장터</text>
  <text x="76" y="561" font-family="Arial" font-size="11" fill="#999">어제 15:20</text>
  <text x="16" y="583" font-family="Arial" font-size="14" fill="#666">아이폰 15 128GB 블루</text>
  <text x="16" y="603" font-family="Arial" font-size="14" fill="#999">1,000,000원</text>
  <text x="16" y="620" font-family="Arial" font-size="11" fill="#999">키워드: 아이폰 15</text>

  <!-- Bottom Navigation Bar -->
  <rect x="0" y="732" width="375" height="80" fill="#FFFFFF" stroke="#E0E0E0" stroke-width="1"/>
  <!-- Tab 1 -->
  <text x="47" y="765" font-family="Arial" font-size="20" text-anchor="middle" fill="#999">&#x1F955;</text>
  <text x="47" y="785" font-family="Arial" font-size="10" text-anchor="middle" fill="#999">당근</text>
  <!-- Tab 2 -->
  <text x="141" y="765" font-family="Arial" font-size="20" text-anchor="middle" fill="#999">&#x1F50D;</text>
  <text x="141" y="785" font-family="Arial" font-size="10" text-anchor="middle" fill="#999">매물검색</text>
  <!-- Tab 3 - Active -->
  <rect x="188" y="732" width="94" height="3" fill="#E53935"/>
  <text x="234" y="765" font-family="Arial" font-size="20" text-anchor="middle" fill="#E53935">&#x1F514;</text>
  <text x="234" y="785" font-family="Arial" font-size="10" font-weight="bold" text-anchor="middle" fill="#E53935">알림</text>
  <!-- Badge -->
  <circle cx="250" cy="752" r="9" fill="#E53935"/>
  <text x="250" y="756" font-family="Arial" font-size="9" font-weight="bold" text-anchor="middle" fill="#FFFFFF">2</text>
  <!-- Tab 4 -->
  <text x="328" y="765" font-family="Arial" font-size="20" text-anchor="middle" fill="#999">&#x2699;</text>
  <text x="328" y="785" font-family="Arial" font-size="10" text-anchor="middle" fill="#999">설정</text>
</svg>